<svg width="33" height="22" viewBox="0 0 33 22" fill="none" xmlns="http://www.w3.org/2000/svg">
<path d="M28.2878 12.3464H26.3112C26.4449 11.9931 26.76 11.1385 27.2565 9.78255L27.2995 9.65365C27.3377 9.55816 27.3854 9.43403 27.4427 9.28125C27.5 9.12847 27.543 9.00434 27.5716 8.90885L27.7435 9.69661L28.2878 12.3464ZM7.60547 11.4154L6.77474 7.1901C6.66971 6.67448 6.31163 6.41667 5.70052 6.41667H1.86198L1.83333 6.60286C4.80295 7.35721 6.727 8.96137 7.60547 11.4154ZM10.1693 6.41667L7.84896 12.6901L7.60547 11.4154C7.35721 10.747 6.95139 10.1287 6.38802 9.56055C5.82465 8.9924 5.19922 8.56988 4.51172 8.29297L6.44531 15.5977H8.95182L12.6901 6.41667H10.1693ZM12.1602 15.612H14.5378L16.0273 6.41667H13.6497L12.1602 15.612ZM23.1602 6.64583C22.5013 6.38802 21.7899 6.25911 21.026 6.25911C19.8516 6.25911 18.8919 6.5408 18.1471 7.10417C17.4023 7.66753 17.0252 8.398 17.0156 9.29557C17.0061 10.2695 17.6984 11.1003 19.0924 11.7878C19.5508 12.0074 19.8707 12.2031 20.0521 12.375C20.2335 12.5469 20.3242 12.7331 20.3242 12.9336C20.3242 13.2201 20.181 13.4397 19.8945 13.5924C19.6081 13.7452 19.2786 13.8216 18.9063 13.8216C18.0851 13.8216 17.3403 13.6641 16.6719 13.349L16.3568 13.1914L16.0273 15.2539C16.7339 15.5786 17.6172 15.7409 18.6771 15.7409C19.9184 15.7504 20.9138 15.4688 21.6634 14.8958C22.413 14.3229 22.7973 13.559 22.8164 12.6042C22.8164 11.592 22.148 10.7613 20.8112 10.112C20.3433 9.87326 20.0043 9.67274 19.7943 9.51042C19.5842 9.34809 19.4792 9.16667 19.4792 8.96615C19.4792 8.75608 19.5961 8.57227 19.8301 8.41471C20.064 8.25716 20.4006 8.17839 20.8398 8.17839C21.5082 8.16884 22.1003 8.28342 22.6159 8.52214L22.8307 8.63672L23.1602 6.64583ZM29.2474 6.41667H27.4141C26.7934 6.41667 26.378 6.67448 26.168 7.1901L22.6445 15.612H25.1367L25.638 14.237H28.6745C28.7222 14.447 28.8177 14.9054 28.9609 15.612H31.1667L29.2474 6.41667ZM33 1.83333V20.1667C33 20.6632 32.8186 21.0929 32.4557 21.4557C32.0929 21.8186 31.6632 22 31.1667 22H1.83333C1.33681 22 0.907118 21.8186 0.544271 21.4557C0.181424 21.0929 0 20.6632 0 20.1667V1.83333C0 1.33681 0.181424 0.907118 0.544271 0.544271C0.907118 0.181424 1.33681 0 1.83333 0H31.1667C31.6632 0 32.0929 0.181424 32.4557 0.544271C32.8186 0.907118 33 1.33681 33 1.83333Z" fill="white"/>
</svg>
