<svg width="25" height="24" viewBox="0 0 25 24" fill="none" xmlns="http://www.w3.org/2000/svg">
<path d="M22.7991 0H1.43908C1.08899 0 0.753247 0.139071 0.505699 0.386619C0.258151 0.634167 0.11908 0.969914 0.11908 1.32V22.68C0.11908 23.0301 0.258151 23.3658 0.505699 23.6134C0.753247 23.8609 1.08899 24 1.43908 24H12.9351V14.7H9.81508V11.1H12.9351V8.4C12.8705 7.76611 12.9453 7.12575 13.1543 6.52384C13.3634 5.92194 13.7016 5.37305 14.1452 4.91569C14.5889 4.45833 15.1272 4.10357 15.7225 3.87629C16.3177 3.649 16.9555 3.5547 17.5911 3.6C18.5251 3.59425 19.4586 3.64233 20.3871 3.744V6.984H18.4791C16.9671 6.984 16.6791 7.704 16.6791 8.748V11.064H20.2791L19.8111 14.664H16.6791V24H22.7991C22.9724 24 23.1441 23.9659 23.3042 23.8995C23.4644 23.8332 23.6099 23.736 23.7325 23.6134C23.855 23.4908 23.9523 23.3453 24.0186 23.1851C24.0849 23.025 24.1191 22.8533 24.1191 22.68V1.32C24.1191 1.14666 24.0849 0.975008 24.0186 0.814858C23.9523 0.654708 23.855 0.509193 23.7325 0.386619C23.6099 0.264046 23.4644 0.166815 23.3042 0.100479C23.1441 0.0341429 22.9724 0 22.7991 0Z" fill="white"/>
</svg>
