<svg width="24" height="24" viewBox="0 0 24 24" fill="none" xmlns="http://www.w3.org/2000/svg">
<path fill-rule="evenodd" clip-rule="evenodd" d="M5.625 0H18.375C21.4816 0 24 2.5184 24 5.625V18.375C24 21.4816 21.4816 24 18.375 24H5.625C2.5184 24 0 21.4816 0 18.375V5.625C0 2.5184 2.5184 0 5.625 0ZM18.7202 9.01753C18.7202 8.86734 18.7202 8.71856 18.7099 8.56978C19.3878 8.07948 19.9729 7.47225 20.4375 6.77644C19.8059 7.05683 19.1357 7.24055 18.4493 7.32141C19.172 6.88872 19.7128 6.20828 19.9713 5.40666C19.2916 5.80982 18.5481 6.09405 17.7728 6.24713C16.4619 4.85344 14.2688 4.78622 12.8744 6.09703C12.4325 6.51245 12.1074 7.03662 11.9317 7.6171C11.7559 8.19758 11.7356 8.81404 11.8729 9.40481C10.4964 9.33602 9.14972 8.97844 7.92042 8.35528C6.69112 7.73213 5.60665 6.85734 4.73747 5.78775C3.81891 7.37006 4.28784 9.39384 5.80903 10.4106C5.25814 10.394 4.71927 10.2454 4.23778 9.97725V10.0211C4.23778 11.6693 5.39981 13.0883 7.01494 13.4147C6.50537 13.5539 5.97063 13.5743 5.45194 13.4743C5.67324 14.1622 6.10396 14.7637 6.68389 15.1948C7.26381 15.6258 7.96395 15.8649 8.68641 15.8785C7.46021 16.8417 5.94581 17.3647 4.38656 17.3634C4.11094 17.3628 3.83606 17.3464 3.5625 17.3135C5.14585 18.3294 6.98814 18.8682 8.86941 18.8655V18.8683C15.2376 18.8683 18.7202 13.5922 18.7202 9.01753Z" fill="white"/>
</svg>
