<svg width="35" height="24" viewBox="0 0 35 24" fill="none" xmlns="http://www.w3.org/2000/svg">
<path d="M33.7715 5.17789C33.7715 5.17789 33.4388 2.82566 32.413 1.7935C31.1143 0.435045 29.6598 0.426515 28.9945 0.34761C24.2239 2.22445e-07 17.0585 0 17.0585 0H17.0457C17.0457 0 9.88235 2.22445e-07 5.10965 0.34761C4.44215 0.428648 2.98987 0.435045 1.69113 1.7935C0.665363 2.82566 0.339079 5.17789 0.339079 5.17789C0.339079 5.17789 0 7.93744 0 10.7034V13.2902C0 16.0498 0.339079 18.8157 0.339079 18.8157C0.339079 18.8157 0.671761 21.1679 1.69113 22.2022C2.98987 23.5607 4.69593 23.5159 5.45726 23.6609C8.18909 23.9211 17.0606 24 17.0606 24C17.0606 24 24.2324 23.9872 29.003 23.646C29.6705 23.5671 31.1228 23.5586 32.4215 22.2001C33.4473 21.1679 33.78 18.8136 33.78 18.8136C33.78 18.8136 34.1191 16.054 34.1191 13.2881V10.7013C34.1127 7.94171 33.7736 5.17576 33.7736 5.17576L33.7715 5.17789ZM13.5248 16.4272V6.83704L22.7418 11.6481L13.5248 16.4272Z" fill="white"/>
</svg>
