<svg width="29" height="22" viewBox="0 0 29 22" fill="none" xmlns="http://www.w3.org/2000/svg">
<path d="M24.1804 9.27143C23.7433 9.27143 23.2621 9.60045 23.2621 10.3862H25.0643C25.0643 9.60045 24.6076 9.27143 24.1804 9.27143ZM18.4152 9.39911C18.0125 9.39911 17.7621 9.54152 17.5804 9.74286L17.5902 12.3357C17.7621 12.5174 18.0076 12.6647 18.4152 12.6647C19.0585 12.6647 19.4906 11.9625 19.4906 11.0246C19.4906 10.1112 19.0487 9.3942 18.4152 9.39911ZM25.9286 0H2.35714C1.0558 0 0 1.0558 0 2.35714V19.6429C0 20.9442 1.0558 22 2.35714 22H25.9286C27.2299 22 28.2857 20.9442 28.2857 19.6429V2.35714C28.2857 1.0558 27.2299 0 25.9286 0ZM6.00089 12.2326C6.00089 13.4897 5.00402 14.2018 3.55045 14.2116C2.95134 14.2116 2.2933 14.0937 1.64509 13.8138V12.1491C2.23438 12.4634 2.97589 12.704 3.55536 12.704C3.9433 12.704 4.22321 12.6009 4.22321 12.2768C4.22321 11.442 1.57143 11.7563 1.57143 9.82634C1.57143 8.58884 2.51429 7.85223 3.92857 7.85223C4.50804 7.85223 5.08259 7.94062 5.66205 8.17143V9.81161C5.1317 9.52679 4.45893 9.36473 3.92857 9.36473C3.56027 9.36473 3.33438 9.47277 3.33438 9.74286C3.33438 10.5286 6.00089 10.1554 6.00089 12.2326ZM9.37946 9.45312H8.05357V11.933C8.05357 12.9594 9.15848 12.6402 9.37946 12.5518V13.971C9.14866 14.0987 8.72634 14.2018 8.1567 14.2018C7.12054 14.2018 6.34464 13.4406 6.34464 12.4094L6.35446 6.81607L8.05848 6.45268V7.96518H9.37946V9.45312ZM13.0134 9.57098C12.7924 9.49732 12.0951 9.3942 11.6826 9.93437V14.079H9.93929V7.96518H11.4469L11.5549 8.4808C11.9625 7.72946 12.7777 7.8817 13.0085 7.96518H13.0134V9.57098ZM15.179 14.079H13.4259V7.96518H15.179V14.079ZM15.179 7.06161L13.4259 7.43482V6.01562L15.179 5.64241V7.06161ZM18.8179 14.2067C18.2089 14.2067 17.8357 13.9464 17.5853 13.7647L17.5804 15.7388L15.8371 16.1071V7.96518H17.3741L17.4625 8.39732C17.7031 8.17634 18.1451 7.85223 18.8277 7.85223C20.0504 7.85223 21.2045 8.95714 21.2045 10.9853C21.2045 13.2 20.0652 14.2018 18.8179 14.2067ZM26.6946 11.6777H23.2817C23.3603 12.4929 23.9594 12.7335 24.6371 12.7335C25.3295 12.7335 25.8746 12.5862 26.3509 12.3455V13.75C25.8746 14.0103 25.2509 14.2018 24.4161 14.2018C22.717 14.2018 21.5286 13.1362 21.5286 11.0344C21.5286 9.2567 22.5353 7.84732 24.1951 7.84732C25.85 7.84732 26.7143 9.2567 26.7143 11.0442C26.7143 11.2161 26.6996 11.5795 26.6946 11.6777Z" fill="white"/>
</svg>
