<svg width="29" height="22" viewBox="0 0 29 22" fill="none" xmlns="http://www.w3.org/2000/svg">
<path d="M9.14866 11.108C9.14866 11.7071 8.67232 12.1638 8.0683 12.1638C7.61652 12.1638 7.28259 11.9085 7.28259 11.4272C7.28259 10.8281 7.74911 10.3469 8.34821 10.3469C8.80491 10.3469 9.14866 10.6268 9.14866 11.108ZM3.95313 8.72634H3.72232C3.64866 8.72634 3.575 8.77545 3.56518 8.85893L3.35402 10.1701L3.7567 10.1554C4.29688 10.1554 4.71429 10.0817 4.8125 9.45804C4.92545 8.8 4.50804 8.72634 3.95313 8.72634ZM17.8996 8.72634H17.6786C17.5902 8.72634 17.5313 8.77545 17.5214 8.85893L17.3152 10.1701L17.708 10.1554C18.3464 10.1554 18.7884 10.008 18.7884 9.27143C18.7835 8.75089 18.317 8.72634 17.8996 8.72634ZM28.2857 2.35714V19.6429C28.2857 20.9442 27.2299 22 25.9286 22H2.35714C1.0558 22 0 20.9442 0 19.6429V2.35714C0 1.0558 1.0558 0 2.35714 0H25.9286C27.2299 0 28.2857 1.0558 28.2857 2.35714ZM6.30045 9.00625C6.30045 7.975 5.50491 7.63125 4.59643 7.63125H2.63214C2.50938 7.63125 2.38661 7.72946 2.37679 7.86205L1.57143 12.8759C1.5567 12.9741 1.63036 13.0723 1.72857 13.0723H2.66161C2.7942 13.0723 2.91696 12.9299 2.9317 12.7924L3.15268 11.4862C3.20179 11.1326 3.80089 11.2554 4.03661 11.2554C5.44107 11.2554 6.30045 10.4205 6.30045 9.00625ZM10.4353 9.43839H9.50223C9.31563 9.43839 9.3058 9.70848 9.29598 9.84107C9.01116 9.42366 8.59866 9.35 8.13214 9.35C6.92902 9.35 6.01071 10.4058 6.01071 11.5696C6.01071 12.5272 6.60982 13.1509 7.56741 13.1509C8.00938 13.1509 8.55938 12.9103 8.86875 12.5665C8.8442 12.6402 8.81964 12.7973 8.81964 12.871C8.81964 12.9839 8.86875 13.0674 8.97679 13.0674H9.82143C9.95402 13.0674 10.067 12.925 10.0915 12.7875L10.5924 9.62991C10.6071 9.53661 10.5335 9.43839 10.4353 9.43839ZM12.4241 14.246L15.5522 9.69866C15.5768 9.67411 15.5768 9.64955 15.5768 9.61518C15.5768 9.5317 15.5031 9.4433 15.4196 9.4433H14.4768C14.3933 9.4433 14.3049 9.49241 14.2558 9.56607L12.9545 11.4812L12.4143 9.63973C12.375 9.5317 12.267 9.4433 12.1442 9.4433H11.2259C11.1424 9.4433 11.0688 9.5317 11.0688 9.61518C11.0688 9.67411 12.0263 12.4045 12.1098 12.6647C11.9772 12.8513 11.1031 14.0692 11.1031 14.2165C11.1031 14.3049 11.1768 14.3737 11.2603 14.3737H12.2031C12.2915 14.3688 12.375 14.3196 12.4241 14.246ZM20.2469 9.00625C20.2469 7.975 19.4513 7.63125 18.5429 7.63125H16.5933C16.4607 7.63125 16.3379 7.72946 16.3232 7.86205L15.5277 12.871C15.5179 12.9692 15.5915 13.0674 15.6848 13.0674H16.6915C16.7897 13.0674 16.8634 12.9937 16.8879 12.9103L17.1089 11.4862C17.158 11.1326 17.7571 11.2554 17.9929 11.2554C19.3875 11.2554 20.2469 10.4205 20.2469 9.00625ZM24.3817 9.43839H23.4487C23.2621 9.43839 23.2522 9.70848 23.2375 9.84107C22.9674 9.42366 22.55 9.35 22.0737 9.35C20.8705 9.35 19.9522 10.4058 19.9522 11.5696C19.9522 12.5272 20.5513 13.1509 21.5089 13.1509C21.9656 13.1509 22.5156 12.9103 22.8103 12.5665C22.7955 12.6402 22.7612 12.7973 22.7612 12.871C22.7612 12.9839 22.8103 13.0674 22.9183 13.0674H23.7679C23.9004 13.0674 24.0134 12.925 24.0379 12.7875L24.5388 9.62991C24.5536 9.53661 24.4799 9.43839 24.3817 9.43839ZM26.7143 7.80312C26.7143 7.70491 26.6406 7.63125 26.5571 7.63125H25.6487C25.575 7.63125 25.5013 7.69018 25.4915 7.76384L24.696 12.871L24.6813 12.8955C24.6813 12.9839 24.7549 13.0674 24.8531 13.0674H25.6634C25.7862 13.0674 25.9089 12.925 25.9188 12.7875L26.7143 7.81786V7.80312ZM22.2946 10.3469C21.6955 10.3469 21.229 10.8232 21.229 11.4272C21.229 11.9036 21.5728 12.1638 22.0246 12.1638C22.6138 12.1638 23.0902 11.7121 23.0902 11.108C23.0951 10.6268 22.7513 10.3469 22.2946 10.3469Z" fill="white"/>
</svg>
