<svg width="33" height="22" viewBox="0 0 33 22" fill="none" xmlns="http://www.w3.org/2000/svg">
<path d="M16.0273 3.05078C14.8051 2.23915 13.4635 1.83333 12.0026 1.83333C11.0191 1.83333 10.0762 2.02669 9.17383 2.41341C8.27148 2.80013 7.49566 3.31814 6.84635 3.96745C6.19705 4.61675 5.67904 5.39019 5.29232 6.28776C4.9056 7.18533 4.71224 8.12587 4.71224 9.10938C4.71224 10.1024 4.9056 11.0477 5.29232 11.9453C5.67904 12.8429 6.19705 13.6163 6.84635 14.2656C7.49566 14.9149 8.2691 15.4329 9.16667 15.8197C10.0642 16.2064 11.0095 16.3997 12.0026 16.3997C13.4635 16.3997 14.8051 15.9939 16.0273 15.1823C14.7765 14.1606 13.9266 12.893 13.4779 11.3796C13.0291 9.8661 13.0315 8.35503 13.485 6.84635C13.9386 5.33767 14.786 4.07248 16.0273 3.05078ZM16.5 3.39453C15.2969 4.33984 14.4757 5.53103 14.0365 6.9681C13.5972 8.40517 13.5948 9.83984 14.0293 11.2721C14.4638 12.7044 15.2873 13.8932 16.5 14.8385C17.7127 13.8932 18.5362 12.7044 18.9707 11.2721C19.4052 9.83984 19.4028 8.40517 18.9635 6.9681C18.5243 5.53103 17.7031 4.33984 16.5 3.39453ZM16.9727 3.05078C18.214 4.07248 19.0614 5.34006 19.515 6.85352C19.9685 8.36697 19.9709 9.88043 19.5221 11.3939C19.0734 12.9073 18.2235 14.1701 16.9727 15.1823C18.1949 15.9939 19.5365 16.3997 20.9974 16.3997C21.9905 16.3997 22.9358 16.2064 23.8333 15.8197C24.7309 15.4329 25.5043 14.9149 26.1536 14.2656C26.803 13.6163 27.321 12.8429 27.7077 11.9453C28.0944 11.0477 28.2878 10.1024 28.2878 9.10938C28.2878 8.12587 28.0944 7.18533 27.7077 6.28776C27.321 5.39019 26.803 4.61675 26.1536 3.96745C25.5043 3.31814 24.7285 2.80013 23.8262 2.41341C22.9238 2.02669 21.9809 1.83333 20.9974 1.83333C19.5365 1.83333 18.1949 2.23915 16.9727 3.05078ZM27.5859 13.3919H27.6862V13.349H27.4427V13.3919H27.543V13.6354H27.5859V13.3919ZM28.0013 13.6354H28.0586V13.349H27.987L27.901 13.5352L27.8151 13.349H27.7435V13.6354H27.7865V13.4206L27.8724 13.6068H27.9297L28.0013 13.4206V13.6354ZM27.8867 19.9375V19.9661H27.8151V19.9232H27.8867V19.9375ZM27.8867 20.0664H27.9297L27.8724 19.9948H27.901L27.9154 19.9805C27.9249 19.9709 27.9297 19.9566 27.9297 19.9375C27.9297 19.9184 27.9249 19.9041 27.9154 19.8945L27.901 19.8802H27.7721V20.0664H27.8151V19.9948H27.8294L27.8867 20.0664ZM9.8112 19.0924C9.8112 18.911 9.86372 18.763 9.96875 18.6484C10.0738 18.5339 10.217 18.4766 10.3984 18.4766C10.5703 18.4766 10.7088 18.5362 10.8138 18.6556C10.9188 18.775 10.9714 18.9206 10.9714 19.0924C10.9714 19.2739 10.9188 19.4219 10.8138 19.5365C10.7088 19.651 10.5703 19.7083 10.3984 19.7083C10.217 19.7083 10.0738 19.651 9.96875 19.5365C9.86372 19.4219 9.8112 19.2739 9.8112 19.0924ZM16.5859 18.4622C16.8724 18.4622 17.0395 18.615 17.0872 18.9206H16.0846C16.1324 18.615 16.2995 18.4622 16.5859 18.4622ZM21.6849 19.0924C21.6849 18.911 21.7374 18.763 21.8424 18.6484C21.9475 18.5339 22.0859 18.4766 22.2578 18.4766C22.4297 18.4766 22.5705 18.5362 22.6803 18.6556C22.7901 18.775 22.8451 18.9206 22.8451 19.0924C22.8451 19.2739 22.7925 19.4219 22.6875 19.5365C22.5825 19.651 22.4392 19.7083 22.2578 19.7083C22.0859 19.7083 21.9475 19.651 21.8424 19.5365C21.7374 19.4219 21.6849 19.2739 21.6849 19.0924ZM25.5807 19.0924C25.5807 18.9206 25.6356 18.775 25.7454 18.6556C25.8553 18.5362 25.9961 18.4766 26.168 18.4766C26.3398 18.4766 26.4807 18.5362 26.5905 18.6556C26.7003 18.775 26.7552 18.9206 26.7552 19.0924C26.7552 19.2739 26.7003 19.4219 26.5905 19.5365C26.4807 19.651 26.3398 19.7083 26.168 19.7083C25.9961 19.7083 25.8553 19.6487 25.7454 19.5293C25.6356 19.4099 25.5807 19.2643 25.5807 19.0924ZM27.8438 20.1237C27.8247 20.1237 27.8056 20.1189 27.7865 20.1094C27.7769 20.1094 27.7626 20.0998 27.7435 20.0807C27.7244 20.0616 27.7148 20.0473 27.7148 20.0378C27.7053 20.0187 27.7005 19.9996 27.7005 19.9805C27.7005 19.9518 27.7053 19.9327 27.7148 19.9232C27.7148 19.9041 27.7244 19.885 27.7435 19.8659L27.7578 19.8516C27.7769 19.8516 27.7865 19.8468 27.7865 19.8372C27.8056 19.8277 27.8247 19.8229 27.8438 19.8229C27.8724 19.8229 27.8915 19.8277 27.901 19.8372L27.9583 19.8659L27.987 19.9232V19.9375C27.9965 19.9566 28.0013 19.9709 28.0013 19.9805L27.987 19.9948V20.0378L27.9727 20.0521L27.9583 20.0807C27.9392 20.0998 27.9201 20.1094 27.901 20.1094C27.8915 20.1189 27.8724 20.1237 27.8438 20.1237ZM8.57943 20.0664H9.00911V18.849C9.00911 18.6198 8.93989 18.436 8.80143 18.2975C8.66298 18.1591 8.47439 18.0851 8.23568 18.0755C7.93012 18.0755 7.70573 18.1901 7.5625 18.4193C7.42882 18.1901 7.21398 18.0755 6.91797 18.0755C6.6888 18.0755 6.5026 18.171 6.35938 18.362V18.1328H5.92969V20.0664H6.35938V18.9922C6.35938 18.6484 6.51693 18.4766 6.83203 18.4766C7.11849 18.4766 7.26172 18.6484 7.26172 18.9922V20.0664H7.67708V18.9922C7.67708 18.6484 7.83464 18.4766 8.14974 18.4766C8.4362 18.4766 8.57943 18.6484 8.57943 18.9922V20.0664ZM10.957 20.0664H11.3724V18.1328H10.957V18.362C10.7947 18.171 10.5894 18.0755 10.3411 18.0755C10.0642 18.0755 9.83507 18.171 9.65365 18.362C9.47222 18.553 9.38151 18.7964 9.38151 19.0924C9.38151 19.3885 9.47222 19.6319 9.65365 19.8229C9.83507 20.0139 10.0642 20.1094 10.3411 20.1094C10.6085 20.1094 10.8138 20.0139 10.957 19.8229V20.0664ZM13.5065 19.4792C13.5065 19.1545 13.2821 18.9635 12.8333 18.9063L12.6328 18.8776C12.4132 18.8394 12.3034 18.7726 12.3034 18.6771C12.3034 18.5339 12.4227 18.4622 12.6615 18.4622C12.8811 18.4622 13.0864 18.5148 13.2773 18.6198L13.4492 18.276C13.2391 18.1424 12.9766 18.0755 12.6615 18.0755C12.4132 18.0755 12.2174 18.1328 12.0742 18.2474C11.931 18.362 11.8594 18.5148 11.8594 18.7057C11.8594 19.0208 12.0838 19.207 12.5326 19.2643L12.7188 19.293C12.9479 19.3312 13.0625 19.398 13.0625 19.4935C13.0625 19.6558 12.9145 19.737 12.6185 19.737C12.3798 19.737 12.1649 19.6701 11.974 19.5365L11.7878 19.8659C12.0265 20.0282 12.3034 20.1094 12.6185 20.1094C12.8954 20.1094 13.1126 20.0521 13.2702 19.9375C13.4277 19.8229 13.5065 19.6701 13.5065 19.4792ZM15.3685 19.9661L15.2539 19.6081C15.1298 19.6749 15.0056 19.7083 14.8815 19.7083C14.7001 19.7083 14.6094 19.6033 14.6094 19.3932V18.5195H15.2969V18.1328H14.6094V17.5456H14.1797V18.1328H13.7786V18.5195H14.1797V19.3932C14.1797 19.8707 14.4041 20.1094 14.8529 20.1094C15.0534 20.1094 15.2253 20.0616 15.3685 19.9661ZM16.6003 18.0755C16.3234 18.0755 16.0942 18.171 15.9128 18.362C15.7313 18.553 15.6406 18.7964 15.6406 19.0924C15.6406 19.398 15.7337 19.6439 15.9199 19.8301C16.1061 20.0163 16.3424 20.1094 16.6289 20.1094C16.944 20.1094 17.2066 20.0187 17.4167 19.8372L17.2161 19.5221C17.0443 19.6654 16.8581 19.737 16.6576 19.737C16.3329 19.737 16.1372 19.5794 16.0703 19.2643H17.5169V19.0924C17.5169 18.7869 17.431 18.541 17.2591 18.3548C17.0872 18.1686 16.8676 18.0755 16.6003 18.0755ZM18.8776 18.0755C18.658 18.0755 18.4909 18.171 18.3763 18.362V18.1328H17.9466V20.0664H18.3763V18.9779C18.3763 18.6437 18.5148 18.4766 18.7917 18.4766C18.8872 18.4766 18.9731 18.4957 19.0495 18.5339L19.1784 18.1328C19.0924 18.0946 18.9922 18.0755 18.8776 18.0755ZM19.3073 19.0924C19.3073 19.3885 19.4004 19.6319 19.5866 19.8229C19.7728 20.0139 20.0234 20.1094 20.3385 20.1094C20.6155 20.1094 20.8446 20.033 21.026 19.8802L20.8255 19.5365C20.6536 19.6606 20.4865 19.7179 20.3242 19.7083C20.1523 19.7083 20.0115 19.651 19.9017 19.5365C19.7919 19.4219 19.737 19.2739 19.737 19.0924C19.737 18.911 19.7919 18.763 19.9017 18.6484C20.0115 18.5339 20.1523 18.4766 20.3242 18.4766C20.5056 18.4766 20.6727 18.5339 20.8255 18.6484L21.026 18.3047C20.8351 18.1519 20.6059 18.0755 20.3385 18.0755C20.0234 18.0755 19.7728 18.171 19.5866 18.362C19.4004 18.553 19.3073 18.7964 19.3073 19.0924ZM22.8164 20.0664H23.2461V18.1328H22.8164V18.362C22.6732 18.171 22.4727 18.0755 22.2148 18.0755C21.9379 18.0755 21.7064 18.171 21.5202 18.362C21.334 18.553 21.2409 18.7964 21.2409 19.0924C21.2409 19.3885 21.334 19.6319 21.5202 19.8229C21.7064 20.0139 21.9379 20.1094 22.2148 20.1094C22.4822 20.1094 22.6827 20.0139 22.8164 19.8229V20.0664ZM24.7214 18.0755C24.5017 18.0755 24.3346 18.171 24.2201 18.362V18.1328H23.8047V20.0664H24.2201V18.9779C24.2201 18.6437 24.3585 18.4766 24.6354 18.4766C24.7309 18.4766 24.8168 18.4957 24.8932 18.5339L25.0221 18.1328C24.9457 18.0946 24.8455 18.0755 24.7214 18.0755ZM26.7266 20.0664H27.1419V17.3451H26.7266V18.362C26.5833 18.171 26.378 18.0755 26.1107 18.0755C25.8433 18.0755 25.6165 18.1734 25.4303 18.3691C25.2441 18.5649 25.151 18.806 25.151 19.0924C25.151 19.3789 25.2441 19.62 25.4303 19.8158C25.6165 20.0115 25.8433 20.1094 26.1107 20.1094C26.3876 20.1094 26.5929 20.0139 26.7266 19.8229V20.0664ZM27.8438 19.7799L27.8151 19.7943H27.7721C27.753 19.8038 27.7339 19.8181 27.7148 19.8372C27.6862 19.8468 27.6719 19.8659 27.6719 19.8945C27.6623 19.9136 27.6576 19.9423 27.6576 19.9805C27.6576 20.0091 27.6623 20.033 27.6719 20.0521C27.6719 20.0712 27.6862 20.0903 27.7148 20.1094C27.7339 20.1285 27.753 20.1428 27.7721 20.1523C27.7912 20.1619 27.8151 20.1667 27.8438 20.1667C27.8819 20.1667 27.9106 20.1619 27.9297 20.1523C27.9297 20.1428 27.9392 20.1332 27.9583 20.1237L27.987 20.1094C27.9965 20.0998 28.0109 20.0807 28.0299 20.0521C28.0395 20.033 28.0443 20.0091 28.0443 19.9805C28.0443 19.9423 28.0395 19.9136 28.0299 19.8945C28.0204 19.885 28.0061 19.8659 27.987 19.8372C27.987 19.8277 27.9774 19.8181 27.9583 19.8086L27.9297 19.7943C27.9201 19.7943 27.9058 19.7919 27.8867 19.7871C27.8676 19.7823 27.8533 19.7799 27.8438 19.7799ZM33 1.83333V20.1667C33 20.6632 32.8186 21.0929 32.4557 21.4557C32.0929 21.8186 31.6632 22 31.1667 22H1.83333C1.33681 22 0.907118 21.8186 0.544271 21.4557C0.181424 21.0929 0 20.6632 0 20.1667V1.83333C0 1.33681 0.181424 0.907118 0.544271 0.544271C0.907118 0.181424 1.33681 0 1.83333 0H31.1667C31.6632 0 32.0929 0.181424 32.4557 0.544271C32.8186 0.907118 33 1.33681 33 1.83333Z" fill="white"/>
</svg>
