<svg width="34" height="22" viewBox="0 0 34 22" fill="none" xmlns="http://www.w3.org/2000/svg">
<path d="M30.8013 22.0011H2.20009C1.61659 22.0011 1.05699 21.7693 0.644392 21.3567C0.231795 20.9441 0 20.3845 0 19.801L0 10.546H1.58498L1.9425 9.68058H2.74278L3.09938 10.5423H6.21801V9.88684L6.49669 10.5469H8.11559L8.39427 9.87584V10.545H16.1432V9.12964H16.2898C16.3944 9.13331 16.4246 9.14248 16.4246 9.31665V10.5469H20.4334V10.2178C20.8431 10.4259 21.3262 10.5478 21.8387 10.5478L21.9257 10.5469H21.9212H23.6079L23.9691 9.68517H24.7694L25.1223 10.5469H28.3729V9.72734L28.8643 10.5469H31.4641V5.13464H28.8909V5.77359L28.5306 5.13464H25.885V5.77359L25.5541 5.13464H21.9817C21.4404 5.10729 20.9011 5.21868 20.415 5.45824L20.4343 5.44999V5.13464H17.9702V5.44999C17.6719 5.21491 17.2952 5.10245 16.9169 5.13556H16.9224H7.91758L7.31347 6.53354L6.69286 5.13556H3.85658V5.7745L3.54398 5.13556H1.12388L0.00275011 7.70234V2.20211C0.00275011 1.61861 0.234545 1.059 0.647142 0.646406C1.05974 0.233809 1.61934 0.00201416 2.20284 0.00201416H30.804C31.3875 0.00201416 31.9471 0.233809 32.3597 0.646406C32.7723 1.059 33.0041 1.61861 33.0041 2.20211V11.8092H31.2871C31.2596 11.8073 31.2266 11.8073 31.1946 11.8073C30.7967 11.8073 30.4273 11.9265 30.1193 12.1309L30.1266 12.1264V11.8092H27.5873C27.1906 11.7873 26.7981 11.9 26.4735 12.1291L26.479 12.1254V11.8083H21.945V12.1254C21.5738 11.9161 21.1546 11.8068 20.7285 11.8083H20.6928H20.6946H17.7034V12.1254C17.3126 11.8751 16.8489 11.7637 16.387 11.8092L16.3953 11.8083H13.0484L12.282 12.637L11.5651 11.8083H6.56544V17.2241H11.4716L12.2609 16.3826L13.0044 17.2241H16.0286V15.9563H16.4503C16.8557 15.9722 17.2601 15.9045 17.6383 15.7574L17.6182 15.7648V17.226H20.1116V15.8152H20.2317C20.3838 15.8152 20.3994 15.8207 20.3994 15.9747V17.2269H27.9769L28.0695 17.2287C28.504 17.2287 28.9092 17.0986 29.2466 16.8758L29.2383 16.8804V17.2269H31.6419L31.7565 17.2287C32.2066 17.2287 32.6347 17.1361 33.0234 16.9684L33.0023 16.9766V19.8019C33.0023 20.3854 32.7705 20.945 32.3579 21.3576C31.9453 21.7702 31.3857 22.002 30.8022 22.002L30.8013 22.0011ZM19.3471 16.4651H18.4139V12.5829H20.5553C20.942 12.547 21.3315 12.6121 21.6856 12.7717L21.6709 12.7662C21.9578 12.9239 22.1494 13.2246 22.1494 13.5692L22.1476 13.6307V13.6279L22.1485 13.6628C22.1485 14.1083 21.8799 14.4915 21.4949 14.6583L21.4876 14.661C21.6718 14.727 21.8258 14.8398 21.9404 14.9856L21.9422 14.9874C22.0717 15.2016 22.1259 15.453 22.0963 15.7015L22.0972 15.696V16.4642H21.1658V15.9783C21.2099 15.7138 21.1568 15.4423 21.0164 15.2138L21.0191 15.2184C20.9224 15.1449 20.8117 15.0919 20.6938 15.0624C20.576 15.033 20.4534 15.0277 20.3334 15.047L20.3389 15.0461H19.3471V16.4642V16.4651ZM19.3471 13.385V14.2568H20.4746C20.6338 14.2715 20.7941 14.243 20.9385 14.1743L20.933 14.177C20.9919 14.1389 21.0405 14.0867 21.0741 14.025C21.1077 13.9634 21.1254 13.8943 21.1255 13.8241L21.1245 13.803C21.1291 13.7329 21.1137 13.6639 21.0801 13.6023C21.0465 13.5406 20.9961 13.4898 20.9348 13.4556L20.933 13.4547C20.7938 13.3924 20.641 13.3672 20.4893 13.3813H20.4929L19.3471 13.385ZM11.0738 16.4642H7.40056V12.5829H11.1315L12.2728 13.8553L13.4526 12.5829H16.4164C17.4687 12.5829 17.9803 13.0018 17.9803 13.8617C17.9803 14.7371 17.4513 15.1625 16.3668 15.1625H15.2072V16.4633H13.4041L12.2618 15.1808L11.0738 16.4642ZM14.2832 12.9991L12.8586 14.53L14.2832 16.1104V12.9991ZM8.32551 14.8829V15.6547H10.6063L11.6605 14.5162L10.6466 13.385H8.3246V14.0909H10.3615V14.882L8.32551 14.8829ZM15.2072 13.3859V14.3741H16.4054C16.772 14.3741 16.9829 14.1871 16.9829 13.8608C16.9829 13.5491 16.7867 13.385 16.4154 13.385L15.2072 13.3859ZM31.7427 16.466H29.9515V15.6318H31.7354C31.8689 15.6502 32.0042 15.6153 32.1122 15.5347L32.1113 15.5356C32.1457 15.5036 32.1732 15.4649 32.1919 15.4218C32.2107 15.3788 32.2204 15.3323 32.2203 15.2853V15.2707C32.2204 15.2243 32.2104 15.1784 32.1909 15.1363C32.1714 15.0942 32.143 15.0568 32.1076 15.0268C32.0127 14.9582 31.8957 14.9275 31.7794 14.9406H31.7812L31.6098 14.9351C30.7719 14.9131 29.8232 14.8875 29.8232 13.7388C29.8232 13.1796 30.1733 12.5829 31.1533 12.5829H33.0023V13.4097H31.311C31.1803 13.3951 31.0484 13.4214 30.9333 13.4849L30.937 13.4831C30.8917 13.5129 30.8553 13.5543 30.8316 13.603C30.8079 13.6517 30.7977 13.7059 30.8022 13.7599V13.759V13.7691C30.8022 13.8309 30.8217 13.8911 30.8579 13.9411C30.8941 13.9911 30.9452 14.0285 31.0039 14.0478L31.0057 14.0487C31.1219 14.0845 31.2436 14.0994 31.3651 14.0927H31.3623L31.8656 14.1055C32.2449 14.0677 32.624 14.1806 32.9207 14.4199L32.918 14.4181C32.9455 14.4401 32.9693 14.464 32.9904 14.4905L32.9913 14.4915L33.0023 15.9692C32.8481 16.1493 32.652 16.2888 32.4313 16.3753C32.2105 16.4618 31.9718 16.4926 31.7363 16.4651L31.7427 16.466ZM28.1227 16.466H26.3149V15.6318H28.1135C28.2481 15.6495 28.3843 15.6147 28.4939 15.5347L28.4921 15.5356C28.5263 15.5035 28.5536 15.4647 28.5722 15.4217C28.5908 15.3786 28.6004 15.3322 28.6003 15.2853V15.2761C28.6002 15.229 28.5902 15.1823 28.5707 15.1394C28.5513 15.0964 28.5229 15.058 28.4875 15.0268C28.391 14.9582 28.2725 14.9275 28.1548 14.9406H28.1566L27.9861 14.9351C27.151 14.9131 26.2031 14.8875 26.2031 13.7388C26.2031 13.1796 26.5514 12.5829 27.5296 12.5829H29.3886V13.4097H27.6872C27.5575 13.3953 27.4265 13.4215 27.3123 13.4849L27.316 13.4831C27.2678 13.5162 27.2295 13.5617 27.2051 13.6149C27.1807 13.668 27.1711 13.7267 27.1773 13.7848C27.1835 13.8429 27.2052 13.8983 27.2403 13.9451C27.2754 13.9918 27.3224 14.0283 27.3765 14.0505L27.3783 14.0514C27.4961 14.0875 27.6193 14.1024 27.7422 14.0954H27.7395L28.2391 14.1083C28.6205 14.0715 29.0012 14.1846 29.3006 14.4236L29.2979 14.4209C29.3986 14.5319 29.4752 14.6627 29.5229 14.8048C29.5705 14.947 29.5882 15.0975 29.5747 15.2468V15.2422C29.5775 16.0517 29.087 16.4642 28.1199 16.4642L28.1227 16.466ZM25.7594 16.466H22.6609V12.582H25.7567V13.3841H23.5868V14.0899H25.7062V14.8811H23.5868V15.6529L25.7594 15.6566V16.4633V16.466ZM27.5653 9.78692H25.676L25.3148 8.92155H23.3879L23.0377 9.78692H21.9523C21.4649 9.81262 20.9849 9.65904 20.6029 9.35515L20.6075 9.3579C20.4261 9.15762 20.2883 8.92171 20.2031 8.66523C20.1179 8.40875 20.087 8.13732 20.1125 7.86826L20.1116 7.87559C20.088 7.60157 20.1203 7.32561 20.2067 7.06449C20.2931 6.80336 20.4316 6.56253 20.6139 6.35661L20.6121 6.35845C20.8046 6.19012 21.0297 6.06322 21.2734 5.98563C21.517 5.90804 21.774 5.88142 22.0284 5.90743L22.0211 5.90651H22.9195V6.7343H22.0394C21.9106 6.71771 21.7798 6.72973 21.6562 6.7695C21.5326 6.80927 21.4193 6.87581 21.3244 6.96439L21.3253 6.96347C21.1293 7.21447 21.0342 7.52965 21.0585 7.84718V7.84259C21.0293 8.16882 21.121 8.49441 21.3161 8.75746L21.3134 8.7538C21.4956 8.90273 21.7289 8.97446 21.9633 8.95364H21.9597H22.3759L23.6877 5.90101H25.081L26.6514 9.56783V5.90101H28.064L29.6939 8.60346V5.90101H30.6473V9.78051H29.3236L27.5635 6.86722V9.78051L27.5653 9.78692ZM24.3578 6.56195L23.7188 8.10935H24.9995L24.3578 6.56195ZM15.375 9.78509H14.4473V5.90376H16.5814C16.9709 5.86334 17.3642 5.92956 17.719 6.09535L17.7052 6.08985C17.8479 6.16875 17.9669 6.28441 18.0497 6.42482C18.1326 6.56523 18.1763 6.72527 18.1764 6.8883L18.1746 6.95247V6.94972V6.97814C18.1747 7.18985 18.1136 7.39709 17.9988 7.57498C17.884 7.75287 17.7203 7.89386 17.5274 7.98101L17.5201 7.98376C17.7043 8.05343 17.8592 8.16527 17.9775 8.30828L17.9793 8.31011C18.1101 8.52515 18.1641 8.7782 18.1324 9.02789L18.1333 9.02239V9.78417H17.1974L17.1937 9.29465V9.22132C17.227 8.98196 17.1741 8.73857 17.0443 8.5347L17.047 8.53929C16.95 8.46796 16.8397 8.41657 16.7226 8.38809C16.6056 8.35961 16.484 8.35461 16.365 8.37336L16.3705 8.37245H15.3759V9.78417L15.375 9.78509ZM15.375 6.71138V7.57308H16.5007C16.6597 7.59033 16.8204 7.5617 16.9636 7.49058L16.959 7.49241C17.0178 7.45671 17.0663 7.40651 17.1 7.34663C17.1337 7.28675 17.1515 7.2192 17.1515 7.15048L17.1506 7.12481C17.1553 7.05516 17.1395 6.98658 17.1051 6.92581C17.0707 6.86505 17.0193 6.81568 16.9572 6.7838L16.9554 6.78288C16.8159 6.72303 16.664 6.69787 16.5126 6.70954H16.5154L15.375 6.71138ZM5.55157 9.78509H3.66682L3.31022 8.91972H1.37781L1.01846 9.78509H0.0100838L1.67207 5.90376H3.04988L4.62753 9.577V5.90376H6.14101L7.35472 8.53562L8.47035 5.90376H10.015V9.78326H9.06163L9.05979 6.74713L7.71499 9.78417H6.90095L5.55248 6.74255V9.78417L5.55157 9.78509ZM2.33943 6.56195L1.70782 8.10935H2.97471L2.33943 6.56195ZM19.6542 9.78417H18.7081V5.90376H19.6551V9.78326L19.6542 9.78417ZM13.8001 9.78417H10.7071V5.90376H13.8056V6.71046H11.6348V7.40991H13.7533V8.20652H11.633V8.98206H13.8037V9.78326L13.8001 9.78417Z" fill="white"/>
</svg>
