<svg width="39" height="45" viewBox="0 0 39 45" fill="none" xmlns="http://www.w3.org/2000/svg">
<path d="M37.0929 36.4769C36.9561 36.4029 36.8257 36.3326 36.7179 36.2707C36.1113 35.9116 35.499 35.2843 35.6069 34.599C35.8338 33.1044 35.8778 32.3984 35.5609 31.8996C35.3903 31.6332 35.138 31.4293 34.8418 31.3183V31.3127C34.974 31.0727 35.0537 30.782 35.1071 30.3639C35.2421 29.3325 34.6383 26.2385 33.8226 23.7351C33.0651 21.4211 31.0811 19.0471 29.6316 17.307L29.2931 16.9001C27.0542 14.1876 27.011 13.3194 26.8038 9.149C26.7738 8.54238 26.7391 7.85513 26.6941 7.08631C26.4241 2.38429 23.9986 0 19.4981 0C17.1354 0 15.3146 0.670377 14.0864 1.99332C13.1028 3.05186 12.56 4.50043 12.56 6.07371C12.56 8.84148 12.7475 11.0429 12.7615 11.1639C12.8928 14.5111 12.8553 15.0286 11.9824 16.5597C11.7733 16.9282 11.1967 17.5789 10.5863 18.2671C9.79125 19.1643 8.89023 20.1807 8.39612 21.0067C8.04265 21.5983 7.84482 22.1909 7.63573 22.8191C7.31695 23.7763 6.95504 24.8611 5.93401 26.2478C4.75546 27.8483 4.47887 29.024 4.90266 30.6967C4.43949 31.3014 4.4498 32.044 4.4573 32.5934C4.4705 32.7842 4.46105 32.9759 4.42918 33.1644C4.21447 33.8761 3.26469 34.0458 2.36648 34.1189C2.21834 34.1302 2.07582 34.1386 1.93987 34.1461C1.25918 34.1827 0.671314 34.2155 0.333782 34.7368C0.00843808 35.2393 0.228772 36.0307 0.534426 37.1258C0.601933 37.3677 0.671314 37.618 0.739759 37.8815C0.911338 38.5378 0.724757 38.864 0.488484 39.2728C0.259712 39.6676 0 40.1167 0 40.9183C0 42.2938 1.87518 42.606 4.03633 42.9754C4.72639 43.0916 5.44271 43.2126 6.15809 43.3729C7.24798 43.6217 8.31644 43.9566 9.3534 44.3743C10.2647 44.724 10.9848 45.0006 11.8314 45.0006C13.3485 45.0006 14.4801 44.0846 15.5743 43.1995L15.7759 43.0354C16.2944 42.6144 17.7917 42.6604 18.9956 42.6941C19.32 42.7035 19.6266 42.7129 19.9004 42.7129H20.4835C21.7474 42.7054 23.4782 42.696 24.443 42.9473C24.7946 43.041 25.0243 43.296 25.314 43.6214C25.8644 44.2364 26.5488 45.0043 28.4446 45.0043C30.2626 45.0043 31.2152 44.1877 32.3187 43.2417C32.99 42.6669 33.6839 42.0715 34.6693 41.5671C35.0368 41.3796 35.3837 41.2043 35.7081 41.0411C37.8308 39.9742 39 39.3863 39 38.4328C39 37.5036 37.8524 36.8857 37.0929 36.4769ZM15.2893 6.78628C15.5455 6.79639 15.7931 6.88184 16.0011 7.03193C16.209 7.18201 16.3681 7.39008 16.4585 7.63011C16.6413 8.15047 16.6282 8.60708 16.4781 8.84335C16.4781 8.84335 16.4575 8.74959 16.4444 8.70834C16.3506 8.37397 16.1353 8.08672 15.8406 7.90295C15.7178 7.82365 15.58 7.77048 15.4358 7.74677C15.2916 7.72306 15.1441 7.72931 15.0024 7.76512C14.603 7.87107 14.2139 8.23392 14.167 9.52685C13.6832 8.5452 13.9504 7.83919 14.2532 7.3704C14.4698 7.02068 14.9536 6.7769 15.2893 6.78628ZM13.6485 41.9459C13.4975 43.4329 11.9224 43.4104 11.4433 43.372C10.5235 43.2951 9.41247 42.9323 8.33705 42.5816C7.91326 42.4438 7.47541 42.3003 7.04974 42.1747C5.81212 41.81 4.22572 41.5427 2.9506 41.3308C2.64869 41.2793 2.36273 41.2315 2.10208 41.1855C1.84143 41.1396 1.66985 41.0664 1.61453 40.9699C1.52077 40.8152 1.65016 40.4776 1.79549 40.0876C1.9905 39.5663 2.25678 38.8481 2.24647 37.9724C2.24647 37.6058 2.10864 37.1942 1.98019 36.7948C1.8283 36.326 1.67266 35.8413 1.79924 35.6115C1.91456 35.4025 2.43211 35.3781 2.88684 35.3781H3.09874C3.43158 35.3781 3.71942 35.3837 3.91913 35.3284C4.5295 35.1587 5.31239 34.6796 5.58897 34.027C5.67336 33.8236 5.71742 33.3763 5.77649 32.7144C5.81118 32.3281 5.84587 31.9296 5.89088 31.7224C5.90195 31.6695 5.92576 31.6201 5.96023 31.5784C5.9947 31.5368 6.0388 31.5041 6.08871 31.4833C6.24341 31.4111 6.7244 31.3043 7.83544 31.8659C8.88367 32.3956 9.98065 34.2886 11.042 36.1197C11.3758 36.6954 11.6908 37.2392 12.0077 37.7474C13.3241 39.8607 13.7732 40.7102 13.6485 41.9478V41.9459ZM25.7284 38.9869C25.6158 39.3391 25.4731 39.6811 25.3018 40.0088C25.2961 40.0216 25.2858 40.0318 25.2728 40.0371C25.2599 40.0425 25.2454 40.0426 25.2324 40.0375C25.2193 40.0325 25.2087 40.0226 25.2028 40.0099C25.1969 39.9972 25.1961 39.9827 25.2005 39.9695C25.3611 39.4083 25.4279 38.8244 25.3984 38.2415C25.3749 37.798 25.3609 37.5299 25.149 37.4436C24.9371 37.3573 24.7496 37.5214 24.263 37.963C24.1598 38.0568 24.0417 38.1637 23.9085 38.2818C22.896 39.1697 21.3883 40.2207 18.6946 40.473C17.1157 40.622 16.1078 40.0388 15.7956 39.7098C15.7773 39.6902 15.7552 39.6745 15.7308 39.6636C15.7064 39.6526 15.68 39.6466 15.6532 39.6459C15.6265 39.6452 15.5998 39.6499 15.5748 39.6595C15.5499 39.6692 15.5271 39.6837 15.5077 39.7023C15.4806 39.7301 15.4618 39.7649 15.4533 39.8028C15.4449 39.8407 15.4472 39.8803 15.4599 39.917C15.6587 40.5583 15.5724 41.0664 15.414 41.4349C15.3249 41.6412 15.2405 41.6271 15.2265 41.403C15.203 40.968 15.1327 40.4767 14.9452 40.0726C14.6536 39.4219 14.2889 38.7281 14.1117 38.3962V38.3915C14.4154 38.2518 14.9424 37.9386 15.1777 37.3714C15.413 36.8042 15.5977 35.6837 14.257 34.3955C13.6682 33.8283 12.1849 32.7866 10.876 31.864C9.85407 31.1467 8.79741 30.4051 8.65864 30.2223C8.23767 29.67 8.0614 29.3503 8.00796 28.3799C8.01452 28.1643 8.02015 27.9496 8.02577 27.7339L8.05109 27.5005C8.05281 27.4874 8.05924 27.4754 8.06915 27.4667C8.07907 27.458 8.09181 27.4532 8.105 27.4532C8.11819 27.4532 8.13093 27.458 8.14084 27.4667C8.15076 27.4754 8.15718 27.4874 8.15891 27.5005C8.19738 27.8087 8.26008 28.1134 8.34643 28.4118C8.44769 28.7615 8.57145 29.1225 8.68583 29.2725C8.98493 29.6682 9.39465 29.9654 9.78 30.0685C9.85783 30.0957 9.94105 30.1038 10.0226 30.092C10.1042 30.0803 10.1818 30.049 10.2488 30.001C10.5235 29.7826 10.4973 29.2884 10.4541 28.469C10.4101 27.6252 10.3501 26.4682 10.6276 25.2296C11.1545 22.8856 11.6505 22.1815 12.2787 21.2917C12.3593 21.1773 12.4428 21.0602 12.5271 20.9364C12.6622 20.7414 12.8084 20.552 12.965 20.3523C13.6654 19.4512 14.4586 18.4311 14.2701 16.5128C14.2223 16.0262 14.1989 15.6849 14.1895 15.4449C14.1866 15.423 14.1915 15.4008 14.2034 15.3822C14.2152 15.3636 14.2333 15.3498 14.2544 15.3431C14.2754 15.3365 14.2982 15.3376 14.3185 15.3461C14.3389 15.3546 14.3556 15.37 14.3658 15.3896L14.4117 15.4618L14.5251 15.6493C14.9808 16.3994 15.804 17.7655 16.8785 17.7655C16.9527 17.7653 17.0267 17.7587 17.0998 17.7458C19.2928 17.3773 21.9659 14.9096 21.9912 14.8852C22.2837 14.6039 22.2575 14.3095 22.1449 14.1435C22.0793 14.0497 21.9827 13.982 21.872 13.9525C21.7614 13.923 21.6438 13.9335 21.5402 13.9823C21.2317 14.1135 20.8708 14.2776 20.4882 14.4511C19.1925 15.0389 17.0191 16.0215 16.5269 15.7956C16.3025 15.6716 16.1019 15.5087 15.9343 15.3146C15.9242 15.3076 15.9155 15.2986 15.9088 15.2883C15.9021 15.2779 15.8975 15.2663 15.8953 15.2542C15.8931 15.242 15.8933 15.2295 15.8959 15.2175C15.8985 15.2054 15.9034 15.194 15.9104 15.1838C15.9175 15.1736 15.9264 15.165 15.9368 15.1583C15.9471 15.1516 15.9587 15.147 15.9709 15.1448C15.983 15.1425 15.9955 15.1427 16.0076 15.1453C16.0196 15.1479 16.0311 15.1529 16.0412 15.1599C16.5653 15.3746 16.9366 15.2958 17.3726 15.1524L17.4664 15.1205C18.3449 14.8308 18.7977 14.6733 20.3504 13.9879C20.8411 13.7578 21.3513 13.5717 21.8749 13.4319C22.25 13.3382 22.4768 13.2791 22.5978 13.025C22.6544 12.9207 22.6801 12.8023 22.6718 12.6839C22.6635 12.5655 22.6216 12.4519 22.5509 12.3565C22.4075 12.1812 22.1693 12.1155 21.8946 12.1784C21.5927 12.2487 21.4539 12.4596 21.2936 12.5993C21.0686 12.7915 20.8248 12.9894 19.6819 13.4104C17.1504 14.3479 16.4397 14.4051 15.443 13.7319C14.5205 13.1047 14.0226 12.4915 14.0226 12.2318C14.0226 12.0321 14.5336 11.6974 14.8392 11.4967C14.9639 11.4152 15.0821 11.3383 15.1786 11.2661C15.5856 10.9642 16.3975 10.1982 16.4331 10.1663C16.9394 9.65905 18.1124 9.9619 18.7771 10.4082C18.8 10.4253 18.826 10.4375 18.8538 10.4441C18.8815 10.4507 18.9103 10.4516 18.9384 10.4466C18.9648 10.4415 18.99 10.4311 19.0123 10.4161C19.0347 10.4011 19.0538 10.3817 19.0685 10.3591C19.0832 10.3365 19.0932 10.3112 19.0979 10.2847C19.1026 10.2582 19.1019 10.231 19.0959 10.2047C18.7021 8.5677 19.0837 7.64136 19.4709 7.15288C19.6677 6.90672 19.917 6.70761 20.2005 6.57006C20.484 6.43251 20.7947 6.35999 21.1098 6.3578C22.3109 6.3578 23.15 7.29539 23.15 8.64739C23.15 9.67874 22.8856 10.2216 22.6362 10.5507C22.6222 10.5688 22.6046 10.5838 22.5844 10.5946C22.5642 10.6055 22.5419 10.6119 22.5191 10.6135C22.4962 10.6151 22.4733 10.6118 22.4518 10.6039C22.4303 10.596 22.4107 10.5836 22.3943 10.5676C22.3679 10.5408 22.3512 10.5058 22.3471 10.4684C22.3431 10.4309 22.3518 10.3932 22.3718 10.3613C22.5794 10.0054 22.6878 9.60039 22.6859 9.18838C22.6871 8.98146 22.6469 8.7764 22.5678 8.58521C22.4886 8.39402 22.3721 8.22055 22.2251 8.07498C22.078 7.9294 21.9034 7.81466 21.7114 7.73746C21.5194 7.66026 21.3139 7.62217 21.107 7.62542C20.7376 7.62542 19.8432 7.76606 19.5347 9.07306C19.4593 9.414 19.4485 9.76605 19.5028 10.111L19.5103 10.1775C19.5947 10.8695 20.9448 11.3505 22.0634 11.6317C23.1285 11.899 23.2822 12.2149 22.8922 13.4722C22.5022 14.7295 23.1838 15.9315 23.4266 16.2447C23.7231 16.6086 23.984 17.0001 24.2058 17.4139C24.4611 17.9081 24.6689 18.4255 24.8264 18.959C25.0299 19.5956 25.2062 20.1451 25.8231 20.9486C26.861 22.2987 27.4789 25.509 27.2295 28.2618C27.2098 28.4877 27.1798 28.664 27.1573 28.7934C27.117 29.0306 27.0898 29.1872 27.2192 29.2978C27.3486 29.4085 27.5155 29.3634 27.8999 29.2387L28.2215 29.1366C28.6091 29.0259 29.003 28.9383 29.401 28.874C29.4327 28.8691 29.4627 28.8566 29.4887 28.8377C29.5146 28.8188 29.5356 28.794 29.55 28.7653C29.8716 28.1174 29.911 27.3383 29.9251 26.6585C29.9251 26.5766 29.9269 26.4894 29.9307 26.3969C29.9485 25.6684 29.9729 24.6221 29.6541 23.3966C29.6461 23.3726 29.648 23.3465 29.6594 23.3239C29.6707 23.3013 29.6906 23.2841 29.7146 23.2761C29.7386 23.2682 29.7647 23.2701 29.7873 23.2814C29.8099 23.2928 29.8271 23.3126 29.8351 23.3366C30.1561 24.1014 30.3663 24.908 30.4595 25.7322C30.6986 27.8492 30.2813 28.7409 30.2776 28.7484C30.2679 28.7679 30.2626 28.7892 30.2619 28.8109C30.2612 28.8327 30.2652 28.8543 30.2737 28.8743C30.2822 28.8944 30.2948 28.9123 30.3109 28.927C30.3269 28.9417 30.346 28.9527 30.3667 28.9593C30.6168 29.0491 30.8407 29.1996 31.0183 29.3972C31.1552 29.5528 31.1055 29.6222 30.9114 29.5491C30.5285 29.4061 30.1229 29.3334 29.7141 29.3344C28.739 29.3344 28.018 29.7985 27.6974 30.196C27.3983 30.5654 27.3504 30.9152 27.3383 31.2527L27.3326 31.2574C26.6313 31.1871 26.1194 31.3708 25.6947 31.8396L25.6872 31.8481C25.1002 32.5747 25.3121 34.1573 25.5662 35.4559C25.6862 36.0607 26.0903 37.8486 25.7284 38.9887V38.9869ZM34.7387 39.931C33.2657 40.5602 32.3544 41.2915 31.5508 41.9365C31.0211 42.3613 30.5195 42.7626 29.9307 43.0748C28.9818 43.5754 27.5952 43.687 26.8113 42.3528C26.5891 41.9778 26.7448 41.4284 26.9595 40.6698C27.2454 39.6619 27.6373 38.2827 27.3073 36.4835C27.2192 36.0035 27.1414 35.5919 27.0739 35.2356C26.8113 33.847 26.7082 33.3248 26.8113 32.9094C26.8704 32.6797 27.1329 32.6281 27.3617 32.6281C27.4442 32.6289 27.5265 32.6348 27.6083 32.646C27.733 33.0712 27.9581 33.4603 28.2646 33.7804C28.799 34.3299 29.5425 34.6083 30.4736 34.6102C30.6704 34.6261 32.9057 34.7555 33.8995 32.51C34.0364 32.5269 34.2417 32.5756 34.3027 32.7256C34.4227 33.0247 34.2774 33.561 34.1602 33.9914C34.0758 34.3017 34.0026 34.5689 34.0073 34.7762C34.0364 36.2763 35.0387 36.912 36.4291 37.7914C36.597 37.8974 36.7723 38.008 36.9495 38.1234C37.1267 38.2387 37.2186 38.3474 37.2186 38.4412C37.1698 38.8903 35.3434 39.6751 34.7387 39.9329V39.931Z" fill="white"/>
</svg>
